<mxfile host="65bd71144e">
    <diagram id="C5RBs43oDa-KdzZeNtuy" name="Page-1">
        <mxGraphModel dx="736" dy="682" grid="1" gridSize="10" guides="1" tooltips="1" connect="1" arrows="1" fold="1" page="1" pageScale="1" pageWidth="827" pageHeight="1169" math="0" shadow="0">
            <root>
                <mxCell id="WIyWlLk6GJQsqaUBKTNV-0"/>
                <mxCell id="WIyWlLk6GJQsqaUBKTNV-1" parent="WIyWlLk6GJQsqaUBKTNV-0"/>
                <mxCell id="I-HRYapTJ19IXj3I7Lnx-9" value="" style="rounded=1;whiteSpace=wrap;html=1;" parent="WIyWlLk6GJQsqaUBKTNV-1" vertex="1">
                    <mxGeometry x="82.5" y="20" width="90" height="50" as="geometry"/>
                </mxCell>
                <mxCell id="I-HRYapTJ19IXj3I7Lnx-19" style="edgeStyle=orthogonalEdgeStyle;rounded=0;orthogonalLoop=1;jettySize=auto;html=1;entryX=0.5;entryY=0;entryDx=0;entryDy=0;exitX=0.5;exitY=1;exitDx=0;exitDy=0;" parent="WIyWlLk6GJQsqaUBKTNV-1" source="I-HRYapTJ19IXj3I7Lnx-9" target="I-HRYapTJ19IXj3I7Lnx-11" edge="1">
                    <mxGeometry relative="1" as="geometry">
                        <mxPoint x="127.5" y="95" as="sourcePoint"/>
                    </mxGeometry>
                </mxCell>
                <mxCell id="I-HRYapTJ19IXj3I7Lnx-10" value="START" style="text;html=1;strokeColor=none;fillColor=none;align=center;verticalAlign=middle;whiteSpace=wrap;rounded=0;" parent="WIyWlLk6GJQsqaUBKTNV-1" vertex="1">
                    <mxGeometry x="102.5" y="32.5" width="50" height="25" as="geometry"/>
                </mxCell>
                <mxCell id="I-HRYapTJ19IXj3I7Lnx-20" style="edgeStyle=orthogonalEdgeStyle;rounded=0;orthogonalLoop=1;jettySize=auto;html=1;entryX=0.5;entryY=0;entryDx=0;entryDy=0;" parent="WIyWlLk6GJQsqaUBKTNV-1" source="I-HRYapTJ19IXj3I7Lnx-11" target="I-HRYapTJ19IXj3I7Lnx-13" edge="1">
                    <mxGeometry relative="1" as="geometry"/>
                </mxCell>
                <mxCell id="I-HRYapTJ19IXj3I7Lnx-11" value="" style="rounded=1;whiteSpace=wrap;html=1;" parent="WIyWlLk6GJQsqaUBKTNV-1" vertex="1">
                    <mxGeometry x="82.5" y="130" width="90" height="50" as="geometry"/>
                </mxCell>
                <mxCell id="I-HRYapTJ19IXj3I7Lnx-12" value="A = 1.75" style="text;html=1;strokeColor=none;fillColor=none;align=center;verticalAlign=middle;whiteSpace=wrap;rounded=0;" parent="WIyWlLk6GJQsqaUBKTNV-1" vertex="1">
                    <mxGeometry x="97.5" y="140" width="60" height="30" as="geometry"/>
                </mxCell>
                <mxCell id="I-HRYapTJ19IXj3I7Lnx-21" style="edgeStyle=orthogonalEdgeStyle;rounded=0;orthogonalLoop=1;jettySize=auto;html=1;entryX=0.5;entryY=0;entryDx=0;entryDy=0;" parent="WIyWlLk6GJQsqaUBKTNV-1" source="I-HRYapTJ19IXj3I7Lnx-13" target="I-HRYapTJ19IXj3I7Lnx-15" edge="1">
                    <mxGeometry relative="1" as="geometry"/>
                </mxCell>
                <mxCell id="I-HRYapTJ19IXj3I7Lnx-13" value="" style="rounded=1;whiteSpace=wrap;html=1;" parent="WIyWlLk6GJQsqaUBKTNV-1" vertex="1">
                    <mxGeometry x="82.5" y="225" width="90" height="50" as="geometry"/>
                </mxCell>
                <mxCell id="I-HRYapTJ19IXj3I7Lnx-14" value="B = 2.18" style="text;html=1;strokeColor=none;fillColor=none;align=center;verticalAlign=middle;whiteSpace=wrap;rounded=0;" parent="WIyWlLk6GJQsqaUBKTNV-1" vertex="1">
                    <mxGeometry x="97.5" y="235" width="60" height="30" as="geometry"/>
                </mxCell>
                <mxCell id="0" style="edgeStyle=none;html=1;entryX=0.495;entryY=0.216;entryDx=0;entryDy=0;entryPerimeter=0;" edge="1" parent="WIyWlLk6GJQsqaUBKTNV-1" source="I-HRYapTJ19IXj3I7Lnx-15">
                    <mxGeometry relative="1" as="geometry">
                        <mxPoint x="127" y="428.02" as="targetPoint"/>
                    </mxGeometry>
                </mxCell>
                <mxCell id="I-HRYapTJ19IXj3I7Lnx-15" value="" style="rounded=1;whiteSpace=wrap;html=1;" parent="WIyWlLk6GJQsqaUBKTNV-1" vertex="1">
                    <mxGeometry x="20" y="320" width="215" height="50" as="geometry"/>
                </mxCell>
                <mxCell id="I-HRYapTJ19IXj3I7Lnx-16" value="Multiply =&amp;nbsp; A * B" style="text;html=1;strokeColor=none;fillColor=none;align=center;verticalAlign=middle;whiteSpace=wrap;rounded=0;" parent="WIyWlLk6GJQsqaUBKTNV-1" vertex="1">
                    <mxGeometry x="97.5" y="330" width="60" height="30" as="geometry"/>
                </mxCell>
                <mxCell id="I-HRYapTJ19IXj3I7Lnx-26" value="" style="rounded=1;whiteSpace=wrap;html=1;" parent="WIyWlLk6GJQsqaUBKTNV-1" vertex="1">
                    <mxGeometry x="77.5" y="530" width="100" height="55" as="geometry"/>
                </mxCell>
                <mxCell id="I-HRYapTJ19IXj3I7Lnx-27" value="END" style="text;html=1;strokeColor=none;fillColor=none;align=center;verticalAlign=middle;whiteSpace=wrap;rounded=0;" parent="WIyWlLk6GJQsqaUBKTNV-1" vertex="1">
                    <mxGeometry x="97.5" y="542.5" width="60" height="30" as="geometry"/>
                </mxCell>
                <mxCell id="6" style="edgeStyle=none;html=1;entryX=0.5;entryY=0;entryDx=0;entryDy=0;exitX=0.477;exitY=0.871;exitDx=0;exitDy=0;exitPerimeter=0;" edge="1" parent="WIyWlLk6GJQsqaUBKTNV-1" source="2" target="I-HRYapTJ19IXj3I7Lnx-26">
                    <mxGeometry relative="1" as="geometry"/>
                </mxCell>
                <mxCell id="2" value="" style="shape=document;whiteSpace=wrap;html=1;boundedLbl=1;" vertex="1" parent="WIyWlLk6GJQsqaUBKTNV-1">
                    <mxGeometry x="72.5" y="430" width="110" height="70" as="geometry"/>
                </mxCell>
                <mxCell id="4" value="Multiply" style="text;html=1;strokeColor=none;fillColor=none;align=center;verticalAlign=middle;whiteSpace=wrap;rounded=0;" vertex="1" parent="WIyWlLk6GJQsqaUBKTNV-1">
                    <mxGeometry x="97.5" y="450" width="60" height="30" as="geometry"/>
                </mxCell>
            </root>
        </mxGraphModel>
    </diagram>
</mxfile>